<svg id="Layer_1" fill="#ffffff" enable-background="new 0 0 512 512" height="512" viewBox="0 0 512 512" width="512" xmlns="http://www.w3.org/2000/svg"><path d="m469.21 276.07c3.57 2.6 8.57 1.82 11.17-1.74l30.08-41.17c1.25-1.71 1.77-3.86 1.44-5.95s-1.48-3.98-3.19-5.23l-247.98-180.83c-2.81-2.05-6.62-2.05-9.43 0l-53.17 38.76v-14.43c0-4.42-3.58-8-8-8h-95.19c-4.42 0-8 3.58-8 8v37.54c0 4.42 3.58 8 8 8h6.17v39.63l-97.82 71.32c-1.72 1.25-2.86 3.13-3.19 5.23s.19 4.24 1.44 5.95l30.08 41.17c1.57 2.14 4 3.28 6.47 3.28 1.63 0 3.28-.5 4.71-1.54l34.43-25.1v205.42h-60.05c-4.42 0-8 3.58-8 8s3.58 8 8 8h477.63c4.42 0 8-3.58 8-8s-3.58-8-8-8h-60.01v-205.4zm-366.27-202.59h79.19v18.09l-4.73 3.45h-1.42-66.87-6.17zm14.18 37.54h38.35l-38.35 27.96zm-77.3 147.41-20.64-28.25 236.83-172.67 236.8 172.67-20.64 28.25-211.44-154.18c-2.81-2.05-6.62-2.05-9.43 0zm175.32 197.96v-145.55h81.71v145.55zm203.67 0h-105.95v-153.55c0-4.42-3.58-8-8-8h-97.71c-4.42 0-8 3.58-8 8v153.55h-105.93v-217.09l162.79-118.68 162.8 118.7zm-194.98-245.76c0 17.71 14.44 32.12 32.18 32.12 17.73 0 32.15-14.41 32.15-32.12 0-17.73-14.42-32.15-32.15-32.15-17.74 0-32.18 14.42-32.18 32.15zm32.18-16.15c8.91 0 16.15 7.24 16.15 16.15 0 8.89-7.25 16.12-16.15 16.12-8.92 0-16.18-7.23-16.18-16.12 0-8.9 7.26-16.15 16.18-16.15z"/></svg>