<svg version="1.1" id="Capa_1" fill="#ffffff" xmlns="http://www.w3.org/2000/svg" xmlns:xlink="http://www.w3.org/1999/xlink" x="0px" y="0px"
	 viewBox="0 0 512 512" style="enable-background:new 0 0 512 512;" xml:space="preserve">
<g>
	<g>
		<path d="M501.682,388.451l-0.943-0.943c-11.134-11.133-27.628-14.217-41.738-8.546V219.999h38.159c4.046,0,7.693-2.438,9.24-6.176
			c1.547-3.738,0.689-8.041-2.174-10.899l-200.257-200c-3.904-3.899-10.23-3.898-14.134,0.001l-54.978,54.924
			c-3.907,3.903-3.911,10.235-0.007,14.142c3.904,3.908,10.236,3.911,14.142,0.007l47.912-47.864l176.091,175.865h-35.409
			L303.968,66.553c-3.904-3.899-10.229-3.899-14.133,0L156.218,199.999h-35.41l72.471-72.377c3.908-3.903,3.912-10.234,0.009-14.142
			c-3.903-3.908-10.234-3.912-14.142-0.009l-89.568,89.453c-2.863,2.859-3.721,7.161-2.174,10.899
			c1.547,3.738,5.194,6.176,9.24,6.176H135v85.135h-14.75v-4.843c0-18.082-14.71-32.792-32.792-32.792H10c-5.523,0-10,4.478-10,10
			v224.5c0,5.522,4.477,10,10,10h77.458c18.081,0,32.792-14.71,32.792-32.792v-4.127l26.275,15.914
			c22.69,13.742,48.704,21.006,75.23,21.006h145.219c28.366,0,56.127-9.832,78.17-27.687l53.8-43.576
			c7.745-6.273,12.486-15.58,13.007-25.534C512.472,405.249,508.729,395.499,501.682,388.451z M100.25,479.207
			c0,7.054-5.738,12.792-12.792,12.792H20v-204.5h67.458c7.053,0,12.792,5.738,12.792,12.792V479.207z M155,219.999h5.356
			c2.65,0,5.191-1.052,7.066-2.924l129.48-129.313l129.479,129.313c1.875,1.873,4.417,2.924,7.066,2.924H439v171.252
			c0,0.365,0.022,0.724,0.06,1.078l-21.129,15.89c-1.367-6.578-4.481-12.733-9.182-17.434c-5.667-5.666-13.2-8.786-21.213-8.786
			h-24.634v-143c0-5.523-4.477-10-10-10h-112c-5.523,0-10,4.477-10,10v76.369c-9.828-6.653-21.405-10.234-33.536-10.234H155V219.999
			z M342.902,248.999v133h-35.784c-5.342,0-10.364-2.08-14.125-5.842l-42.166-42.363c0.045-0.386,0.075-0.776,0.075-1.174v-83.621
			H342.902z M491.979,414.157c-0.229,4.366-2.226,8.286-5.623,11.038l-53.8,43.576c-18.493,14.979-41.784,23.228-65.582,23.228
			H221.755c-22.873,0-45.305-6.264-64.869-18.113l-36.636-22.189V325.134h77.116c10.684,0,20.729,4.161,28.268,11.7l53.2,53.449
			c7.556,7.555,17.6,11.716,28.284,11.716h80.418c2.671,0,5.183,1.04,7.071,2.929c4.585,4.585,4.956,12.138,2.976,16.916
			c-0.591,1.427-1.287,2.446-2.007,3.187l-0.511,0.384c0.032,0.006,0.06,0.011,0.092,0.017c-1.736,1.516-3.524,1.525-4.281,1.525
			H271c-6.911,0-13.625-1.991-19.417-5.759l-32.091-20.872l-0.117-0.076c-4.625-3.017-10.821-1.718-13.84,2.908
			c-3.019,4.625-1.717,10.821,2.908,13.84l32.235,20.966c9.045,5.883,19.53,8.993,30.322,8.993h119.875
			c6.711,0,12.76-2.341,17.518-6.541l54.568-41.037c7.397-4.999,17.31-4.057,23.635,2.271l0.944,0.943
			C490.631,405.684,492.208,409.791,491.979,414.157z"/>
	</g>
</g>
<g>
	<g>
		<path d="M406,290.625c-5.523,0-10,4.478-10,10v63.374c0,5.522,4.477,10,10,10s10-4.478,10-10v-63.374
			C416,295.103,411.523,290.625,406,290.625z"/>
	</g>
</g>
<g>
	<g>
		<path d="M413.07,255.499c-1.86-1.87-4.44-2.93-7.07-2.93s-5.21,1.06-7.07,2.93c-1.86,1.859-2.93,4.43-2.93,7.069
			c0,2.631,1.07,5.211,2.93,7.07c1.86,1.861,4.44,2.93,7.07,2.93s5.21-1.069,7.07-2.93c1.86-1.859,2.93-4.439,2.93-7.07
			C416,259.928,414.93,257.358,413.07,255.499z"/>
	</g>
</g>
<g>
	<g>
		<path d="M280.86,308.058c-1.86-1.859-4.44-2.92-7.07-2.92c-2.64,0-5.21,1.061-7.08,2.92c-1.86,1.87-2.92,4.44-2.92,7.07
			c0,2.64,1.06,5.21,2.92,7.08c1.87,1.86,4.45,2.93,7.08,2.93s5.2-1.07,7.07-2.93c1.86-1.87,2.93-4.44,2.93-7.08
			C283.79,312.498,282.72,309.928,280.86,308.058z"/>
	</g>
</g>
<g>
	<g>
		<path d="M221.139,85.661c-3.905-3.905-10.237-3.905-14.143,0c-3.905,3.905-3.905,10.237,0,14.143l0.002,0.001
			c1.953,1.953,4.511,2.928,7.07,2.928c2.559,0,5.119-0.977,7.071-2.929C225.044,95.899,225.043,89.566,221.139,85.661z"/>
	</g>
</g>
<g>
	<g>
		<path d="M296.902,131.665c-21.505,0-39,17.495-39,39s17.495,39,39,39s39-17.495,39-39S318.407,131.665,296.902,131.665z
			 M296.902,189.665c-10.477,0-19-8.523-19-19c0-10.477,8.523-19,19-19c10.477,0,19,8.523,19,19
			C315.902,181.142,307.379,189.665,296.902,189.665z"/>
	</g>
</g>
<g>
	<g>
		<path d="M67.19,440.929c-1.86-1.861-4.43-2.93-7.07-2.93c-2.63,0-5.2,1.069-7.07,2.93c-1.86,1.86-2.93,4.44-2.93,7.07
			s1.07,5.21,2.93,7.069c1.87,1.86,4.44,2.931,7.07,2.931c2.64,0,5.21-1.07,7.07-2.931c1.87-1.859,2.93-4.439,2.93-7.069
			S69.06,442.789,67.19,440.929z"/>
	</g>
</g>
<g>
</g>
<g>
</g>
<g>
</g>
<g>
</g>
<g>
</g>
<g>
</g>
<g>
</g>
<g>
</g>
<g>
</g>
<g>
</g>
<g>
</g>
<g>
</g>
<g>
</g>
<g>
</g>
<g>
</g>
</svg>
