<svg id="Layer_1" fill="#d7570c" height="512" viewBox="0 0 512.502 512.502" width="512" xmlns="http://www.w3.org/2000/svg"><g><path d="m506.668 383.345c-1.707-1.425-3.958-2.019-6.146-1.621l-63.179 11.471 11.439-63.422c.292-5.244-2.168-8.188-7.381-8.831-39.244 0-69.487 38.231-59.772 76.438-62.758 23.841-129.932-31.749-119.163-97.861 42.801 15.689 64.847-1.719 26.746-50.139 16.9-15.974 38.921-24.746 62.232-24.746h96.188c54.865-3.69 50.091-72.017 12.683-94.888-11.655-7.368-26.887-11.489-45.353-12.278-12.653-97.547-123.302-134.305-208.274-110.408-4.011 1.026-6.431 5.113-5.402 9.125 1.028 4.014 5.115 6.429 9.127 5.404 79.021-22.047 182.474 11.254 190.395 103.932.358 3.857 3.595 6.807 7.469 6.807 32.214.443 56.133 8.595 64.015 39.289h-121.594c-35.899 0-70.048 13.072-96.725 36.915-3.878-4.072-6.396-6.599-6.665-6.867-2.926-2.931-7.675-2.934-10.606-.007s-2.934 7.675-.008 10.606c11.942 11.345 58.72 63.122 57.31 77.212-10.276 4.195-29.505-5.054-38.172-8.174-18.885-6.799-37.437-15.088-55.282-24.283-3.689-1.882-8.207-.423-10.092 3.266-1.885 3.688-.424 8.206 3.265 10.091.501.257 7.062 3.602 16.747 8.125-11.298 39.858-3.888 85.71 22.318 117.424 6.267 7.696 17.66-2.069 11.631-9.473-21.974-26.981-29.387-65.288-20.096-101.676 7.845 3.44 15.776 6.723 23.794 9.74-12.459 65.862 44.264 128.883 111.068 123.206-23.827 10.405-54.171 9.273-80.099-3.538-8.693-4.301-15.338 9.152-6.646 13.447 39.182 20.74 99.2 14.656 124.739-22.02 1.24-1.964 1.477-4.481.648-6.654-9.938-26.426 6.707-56.561 34.438-62.113l-11.603 64.331c-.133 5.947 2.774 8.85 8.721 8.71l64.085-11.636c-5.04 28.486-38.192 46.479-65.009 33.289-2.762-1.255-6.011-.725-8.228 1.35-44.832 41.931-80.705 64.653-141.778 64.653-129.607 2.056-230.47-110.682-229.16-238.981-.704-88.3 40.347-180.406 121.615-222 3.688-1.888 5.146-6.406 3.259-10.094s-6.405-5.146-10.093-3.26c-14.78 7.565-28.659 16.895-41.447 27.802-30.001-6.326-72.474-8.713-109.28 13.682-15.642 9.518-12.692 33.679 4.575 39.456 13.008 4.353 30.82 12.225 44.604 25.514-48.218 96.267-34.309 231.305 41.516 308.419 86.815 92.285 235.891 102.65 322.907 9.044 39.135 15.149 83.121-16.181 82.413-58.023 0-2.221-.987-4.33-2.694-5.755zm-242.481-163.823c23.89-21.255 54.422-32.905 86.511-32.905h123.07c-1.684 12.842-13.203 23.017-26.136 23.017h-96.188c-26.735 0-52.011 9.899-71.579 27.951-5.376-6.51-10.82-12.706-15.678-18.063zm-246.23-135.465c-.146-1.298-.127-4.534 3.187-6.55 16.87-10.263 45.33-20.393 87.767-13.773-15.023 15.136-28.211 32.652-39.186 52.172-15.218-13.423-33.496-21.448-47.043-25.982-3.92-1.311-4.608-4.822-4.725-5.867z"/><path d="m363.304 108.358c0-23.689-19.207-42.962-42.815-42.962-56.721 2.157-56.706 83.775.001 85.924 23.607 0 42.814-19.273 42.814-42.962zm-70.63 0c0-15.418 12.478-27.962 27.815-27.962 36.849 1.404 36.839 54.526 0 55.924-15.338 0-27.815-12.544-27.815-27.962z"/><path d="m320.489 100.858c-9.652 0-9.668 15 0 15 9.652 0 9.668-15 0-15z"/></g></svg>