<svg id="Layer_1" fill="#9b9b9b" enable-background="new 0 0 512 512" height="512" viewBox="0 0 512 512" width="512" xmlns="http://www.w3.org/2000/svg"><path d="m468.51 50.83h-228.53c-23.98 0-43.49 19.48-43.49 43.42v28.21h-153c-23.98 0-43.49 19.49-43.49 43.44v181.86c0 23.96 19.51 43.44 43.49 43.44h25.39v61.95c0 3.08 1.77 5.88 4.54 7.21 1.1.53 2.28.79 3.46.79 1.79 0 3.56-.6 5.01-1.76l84.97-68.19h105.13c23.98 0 43.49-19.49 43.49-43.44v-28.21h29.64l84.97 68.19c1.45 1.16 3.22 1.76 5.01 1.76 1.18 0 2.36-.26 3.46-.79 2.77-1.33 4.54-4.14 4.54-7.21v-61.95h25.42c23.98 0 43.49-19.49 43.49-43.44v-181.86c-.01-23.94-19.52-43.42-43.5-43.42zm-169.03 296.94c0 15.13-12.33 27.44-27.49 27.44h-107.94c-1.82 0-3.59.62-5.01 1.76l-74.16 59.52v-53.28c0-4.42-3.58-8-8-8h-33.39c-15.16 0-27.49-12.31-27.49-27.44v-181.87c0-15.13 12.33-27.44 27.49-27.44h228.5c15.16 0 27.49 12.31 27.49 27.44zm196.52-71.66c0 15.13-12.33 27.44-27.49 27.44h-33.42c-4.42 0-8 3.58-8 8v53.28l-74.16-59.52c-1.42-1.14-3.19-1.76-5.01-1.76h-32.45v-70.52h113.72c4.42 0 8-3.58 8-8s-3.58-8-8-8h-113.71v-23.86h113.72c4.42 0 8-3.58 8-8s-3.58-8-8-8h-113.72v-11.27c0-23.96-19.51-43.44-43.49-43.44h-59.49v-28.21c0-15.12 12.33-27.42 27.49-27.42h228.53c15.16 0 27.49 12.3 27.49 27.42v181.86zm-58.81-130.79c0 4.42-3.58 8-8 8h-69.67c-4.42 0-8-3.58-8-8s3.58-8 8-8h69.67c4.42 0 8 3.58 8 8zm-198.62 91.77-76.14-55.49c-2.81-2.05-6.62-2.05-9.42 0l-76.11 55.49c-1.72 1.25-2.87 3.13-3.19 5.23s.19 4.24 1.45 5.96l12.64 17.27c1.57 2.14 4 3.27 6.46 3.27 1.64 0 3.29-.5 4.71-1.54l.92-.67v58.98c0 4.42 3.58 8 8 8h99.69c4.42 0 8-3.58 8-8v-58.98l.92.67c3.56 2.6 8.56 1.82 11.17-1.74l12.64-17.27c1.25-1.71 1.78-3.86 1.45-5.96-.32-2.08-1.47-3.97-3.19-5.22zm-89.6 80.51v-43.79h17.51v43.79zm50.61 0h-17.11v-51.79c0-4.42-3.58-8-8-8h-33.51c-4.42 0-8 3.58-8 8v51.79h-17.08v-62.65l41.83-30.51 41.86 30.52v62.64zm19.9-67.94-57.04-41.58c-1.4-1.02-3.06-1.54-4.71-1.54s-3.31.51-4.71 1.54l-57.02 41.58-3.19-4.36 64.92-47.33 64.95 47.33z"/></svg>