<svg id="Layer_1" fill="#d7570c" enable-background="new 0 0 512 512" height="512" viewBox="0 0 512 512" width="512" xmlns="http://www.w3.org/2000/svg"><path d="m394.42 247.95v-44.27l29.86 21.77c1.42 1.04 3.07 1.54 4.71 1.54 2.47 0 4.9-1.14 6.47-3.28l27.18-37.2c1.25-1.71 1.77-3.86 1.45-5.95-.33-2.1-1.48-3.98-3.19-5.23l-224.08-163.39c-2.81-2.05-6.62-2.05-9.43 0l-46.81 34.13v-11.53c0-4.42-3.58-8-8-8h-86c-4.42 0-8 3.58-8 8v33.92c0 4.42 3.58 8 8 8h4.78v34.65l-88.07 64.21c-1.72 1.25-2.86 3.13-3.19 5.23s.19 4.24 1.45 5.95l27.18 37.2c2.6 3.56 7.6 4.35 11.17 1.74l29.86-21.77v211.95c0 4.42 3.58 8 8 8h189.8c19.25 45.75 64.58 77.97 117.31 77.97 70.1 0 127.14-56.97 127.14-126.99-.01-66.82-51.93-121.75-117.59-126.65zm-299.84-205.41h70v15.19l-3.74 2.72h-1.05-60.43-4.78zm12.78 33.92h31.53l-31.53 22.99zm-70.43 131.35-17.74-24.28 212.91-155.22 212.9 155.22-17.74 24.28-190.44-138.85c-2.81-2.05-6.62-2.05-9.43 0zm48.83-15.8 146.34-106.69 146.32 106.68v55.74c-33.21 1.66-63.09 16.11-84.83 38.5v-35.79c0-4.42-3.58-8-8-8h-107c-4.42 0-8 3.58-8 8v157.16h-84.83zm100.83 215.62v-149.16h91.01v47.99c-12.59 19.7-19.9 43.09-19.9 68.15 0 11.42 1.53 22.49 4.37 33.02zm198.27 77.96c-61.3 0-111.17-49.79-111.17-110.99 0-61.21 49.87-111.02 111.17-111.02 61.28 0 111.14 49.8 111.14 111.02 0 61.2-49.86 110.99-111.14 110.99zm40.58-160.44c-.01 0-.02 0-.03 0-6.16 0-11.95 2.39-16.27 6.72l-37.06 36.72-11.66-11.32c-9.13-8.86-23.8-8.67-32.71.45-4.31 4.43-6.63 10.27-6.54 16.44s2.58 11.95 7.02 16.25l27.95 27.12c4.48 4.34 10.31 6.51 16.13 6.51 5.92 0 11.83-2.24 16.28-6.71l53.19-52.69c4.38-4.36 6.81-10.15 6.82-16.32.01-6.16-2.38-11.97-6.74-16.34-4.38-4.41-10.19-6.82-16.38-6.83zm5.01 28.12-53.21 52.72c-2.71 2.72-7.19 2.74-9.96.05l-27.95-27.12c-1.37-1.33-2.13-3.1-2.16-5s.69-3.7 2-5.04c1.4-1.43 3.26-2.15 5.12-2.15 1.8 0 3.6.67 4.98 2.02l17.29 16.79c3.13 3.03 8.11 3.01 11.2-.06l42.66-42.26c1.33-1.33 3.1-2.06 4.99-2.06h.01c1.91 0 3.7.75 5.05 2.1 1.34 1.34 2.08 3.12 2.07 5.01 0 1.88-.75 3.66-2.09 5z"/></svg>