<svg id="Layer_1" fill="#d7570c" enable-background="new 0 0 512 512" height="512" viewBox="0 0 512 512" width="512" xmlns="http://www.w3.org/2000/svg"><path d="m394.39 247.95v-44.29l29.89 21.79c3.57 2.6 8.57 1.82 11.17-1.74l27.18-37.2c1.25-1.71 1.77-3.86 1.45-5.95-.33-2.1-1.48-3.98-3.19-5.23l-224.1-163.39c-2.81-2.05-6.62-2.05-9.43 0l-46.79 34.11v-11.51c0-4.42-3.58-8-8-8h-86c-4.42 0-8 3.58-8 8v33.92c0 4.42 3.58 8 8 8h4.78v34.65l-88.06 64.21c-1.72 1.25-2.86 3.13-3.19 5.23s.19 4.24 1.45 5.95l27.18 37.2c1.57 2.14 4 3.28 6.47 3.28 1.63 0 3.28-.5 4.71-1.54l29.86-21.77v211.95c0 4.42 3.58 8 8 8h189.79c19.24 45.75 64.56 77.97 117.28 77.97 70.12 0 127.17-56.97 127.17-126.99-.01-66.82-51.95-121.75-117.62-126.65zm-299.81-205.41h70v15.18l-3.76 2.74h-1.06-60.4-4.78zm12.78 33.92h31.52l-31.52 22.98zm-70.43 131.35-17.74-24.28 212.89-155.22 212.92 155.22-17.74 24.28-190.47-138.85c-1.4-1.02-3.06-1.54-4.71-1.54s-3.31.51-4.71 1.54zm48.83-15.8 146.32-106.69 146.32 106.67v55.76c-33.21 1.66-63.1 16.12-84.83 38.52v-35.81c0-4.42-3.58-8-8-8h-106.98c-4.42 0-8 3.58-8 8v157.16h-84.83zm100.83 215.62v-149.16h90.98v48.03c-12.57 19.7-19.87 43.07-19.87 68.11 0 11.42 1.53 22.49 4.37 33.02zm198.24 77.96c-61.28 0-111.14-49.79-111.14-110.99 0-61.21 49.86-111.02 111.14-111.02 61.3 0 111.17 49.8 111.17 111.02 0 61.2-49.87 110.99-111.17 110.99zm42.91-156-72.88 99.45c-1.57 2.14-4 3.27-6.46 3.27-1.64 0-3.3-.5-4.72-1.55-3.56-2.61-4.34-7.62-1.72-11.18l72.88-99.45c2.61-3.56 7.62-4.34 11.18-1.72 3.56 2.61 4.33 7.62 1.72 11.18zm-57.39 25.31v-16.79c0-12.15-9.88-22.04-22.03-22.04-12.16 0-22.06 9.89-22.06 22.04v16.79c0 12.15 9.9 22.04 22.06 22.04 12.15 0 22.03-9.88 22.03-22.04zm-28.09 0v-16.79c0-3.33 2.72-6.04 6.06-6.04 3.33 0 6.03 2.71 6.03 6.04v16.79c0 3.33-2.71 6.04-6.03 6.04-3.34 0-6.06-2.71-6.06-6.04zm79.11 17.34c-12.16 0-22.06 9.89-22.06 22.04v16.79c0 12.15 9.9 22.04 22.06 22.04s22.06-9.89 22.06-22.04v-16.79c0-12.15-9.89-22.04-22.06-22.04zm6.06 38.83c0 3.33-2.72 6.04-6.06 6.04s-6.06-2.71-6.06-6.04v-16.79c0-3.33 2.72-6.04 6.06-6.04s6.06 2.71 6.06 6.04z"/></svg>