<svg id="Layer_1" fill="#9b9b9b" enable-background="new 0 0 512 512" height="512" viewBox="0 0 512 512" width="512" xmlns="http://www.w3.org/2000/svg"><path d="m140.29 341.31c-13.02 0-23.62 10.6-23.62 23.63 0 13.01 10.6 23.6 23.62 23.6s23.62-10.59 23.62-23.6c0-13.03-10.6-23.63-23.62-23.63zm0 31.23c-4.2 0-7.62-3.41-7.62-7.6 0-4.21 3.42-7.63 7.62-7.63s7.62 3.42 7.62 7.63c0 4.19-3.42 7.6-7.62 7.6zm40.05-198.23h51.53c4.42 0 8-3.58 8-8v-51.47c0-4.42-3.58-8-8-8h-51.53c-4.42 0-8 3.58-8 8v51.47c0 4.42 3.59 8 8 8zm8-51.46h35.53v35.47h-35.53zm74.15 51.46h51.51c4.42 0 8-3.58 8-8v-51.47c0-4.42-3.58-8-8-8h-51.5c-4.42 0-8 3.58-8 8v51.47c-.01 4.42 3.57 8 7.99 8zm8-51.46h35.51v35.47h-35.5v-35.47zm-90.15 133.48h51.53c4.42 0 8-3.58 8-8v-51.44c0-4.42-3.58-8-8-8h-51.53c-4.42 0-8 3.58-8 8v51.44c0 4.42 3.59 8 8 8zm8-51.44h35.53v35.44h-35.53zm74.15 51.44h51.51c4.42 0 8-3.58 8-8v-51.44c0-4.42-3.58-8-8-8h-51.5c-4.42 0-8 3.58-8 8v51.44c-.01 4.42 3.57 8 7.99 8zm8-51.44h35.51v35.44h-35.5v-35.44zm172.91 66.01h-51.53c-4.42 0-8 3.58-8 8v51.47c0 4.42 3.58 8 8 8h51.53c4.42 0 8-3.58 8-8v-51.47c0-4.42-3.59-8-8-8zm-8 51.47h-35.53v-35.47h35.53zm68.6 163.24h-14.79v-230.03c0-3.01-1.69-5.76-4.37-7.13l-122.79-62.49v-118.22c0-4.42-3.58-8-8-8h-15.02v-41.35c0-4.42-3.58-8-8-8h-167.72c-4.42 0-8 3.58-8 8v41.34h-15.02c-4.42 0-8 3.58-8 8v89.3h-83.1c-4.42 0-8 3.58-8 8v178.91l-37.9 27.63c-1.72 1.25-2.87 3.14-3.19 5.23-.33 2.1.2 4.24 1.45 5.96l16.07 21.94c1.57 2.14 4 3.27 6.46 3.27 1.64 0 3.29-.5 4.71-1.54l12.4-9.04v88.2h-14.79c-4.42 0-8 3.58-8 8s3.58 8 8 8h477.6c4.42 0 8-3.58 8-8s-3.58-7.98-8-7.98zm-104.14-100.34 1.83-2.5c1.25-1.71 1.77-3.86 1.45-5.95s-1.47-3.98-3.19-5.23l-.09-.06v-2.57h35.53v35.44h-35.53zm-15.81-5.48-6.6 9.02-109.76-80.05c-1.4-1.02-3.06-1.54-4.71-1.54s-3.31.51-4.71 1.54l-33.55 24.47-9.5-6.94 47.76-34.81zm-212.74-353.4h151.72v33.34h-151.72zm-23.02 49.35h197.76v256.54l-78.36-57.15c-2.81-2.05-6.62-2.05-9.43 0l-56.64 41.28-53.33-38.88zm-16 164.59h-39.76v-35.44h39.76zm-75.1-67.29h75.1v15.85h-47.76c-4.42 0-8 3.58-8 8v51.44c0 4.42 3.58 8 8 8h47.76v21.2l-75.1 54.76zm-31.38 215.78-6.62-9.03 121.1-88.29 121.1 88.3-6.6 9.02-109.79-80.06c-2.81-2.05-6.62-2.05-9.43 0zm90.9 96.79v-55.29h47.16v55.29zm63.16 0v-63.29c0-4.42-3.58-8-8-8h-63.16c-4.42 0-8 3.58-8 8v63.29h-43.52v-99.87l83.1-60.61 83.1 60.59v99.89zm59.53 0v-88.22l12.43 9.06c3.57 2.6 8.57 1.82 11.17-1.74l16.04-21.94c1.25-1.71 1.77-3.86 1.45-5.96-.33-2.1-1.48-3.98-3.19-5.23l-39.01-28.44 24.69-18.01 83.08 60.59v99.89zm122.65 0v-88.22l12.43 9.06c1.42 1.04 3.07 1.54 4.71 1.54 1.66 0 3.3-.53 4.68-1.52v5.92c0 4.42 3.58 8 8 8h51.53c4.42 0 8-3.58 8-8v-51.44c0-4.42-3.58-8-8-8h-51.53c-4.06 0-7.41 3.03-7.92 6.96l-21.89-15.96v-140.04l111.16 56.57v225.13z"/></svg>