<svg id="Capa_1" fill="#d7570c" enable-background="new 0 0 512 512" height="512" viewBox="0 0 512 512" width="512" xmlns="http://www.w3.org/2000/svg"><g><path d="m475.093 35.957c-22.865-23.187-53.39-35.957-85.952-35.957-24.854 0-48.725 7.494-69.03 21.672-17.925 12.516-31.963 29.405-40.911 49.137h-77.433c-5.534 0-10.02 4.486-10.02 10.02s4.486 10.02 10.02 10.02h84.091c4.14 0 7.855-2.547 9.346-6.409 7.245-18.755 19.824-34.777 36.379-46.337 16.924-11.817 36.828-18.063 57.558-18.063 27.156 0 52.614 10.65 71.683 29.989 19.065 19.334 29.354 44.949 28.973 72.127-.597 42.562-28.316 79.149-66.445 93.14 5.501-21.493 6.36-40.499 2.593-55.37 19.24-2.694 34.096-19.251 34.096-39.221 0-21.843-17.771-39.613-39.614-39.613-21.844 0-39.614 17.771-39.614 39.613 0 15.674 9.152 29.25 22.392 35.669 7.422 12.624 6.577 36.577-2.248 64.293-3.555.424-7.161.666-10.813.702-20.952.207-41.048-5.95-58.18-17.796-6.985-4.81-14.001-11.126-19.632-17.759-7.245-8.533-13.037-18.247-17.13-28.84-1.492-3.862-5.207-6.409-9.346-6.409h-57.536c-3.58 0-6.888 1.91-8.678 5.01l-15.15 26.253c-.04.019-.14.02-.208-.053l-15.341-26.247c-1.797-3.074-5.09-4.964-8.651-4.963-3.561 0-6.854 1.89-8.65 4.965l-15.411 26.384c-.039.019-.14.02-.207-.053l-15.38-26.33c-1.796-3.075-5.09-4.965-8.651-4.966 0 0 0 0-.001 0-3.561 0-6.854 1.89-8.651 4.964l-15.363 26.297c-.038.019-.141.02-.207-.053l-15.121-26.199c-1.79-3.1-5.098-5.01-8.678-5.01h-45.348l-15.207-29.858 15.207-29.858h71.831c5.534 0 10.02-4.486 10.02-10.02s-4.486-10.02-10.02-10.02h-77.973c-3.769 0-7.218 2.114-8.929 5.473l-20.308 39.878c-1.455 2.857-1.455 6.237 0 9.094l20.309 39.878c1.71 3.358 5.16 5.473 8.929 5.473h45.704l12.23 21.188c3.636 6.298 10.147 10.069 17.418 10.088h.056c7.249 0 13.756-3.734 17.416-9.996l6.684-11.437 6.73 11.522c3.658 6.261 10.169 9.998 17.419 9.999 7.25 0 13.762-3.738 17.419-9.998l6.734-11.527 6.689 11.444c3.66 6.261 10.166 9.994 17.415 9.994h.057c7.271-.02 13.782-3.791 17.417-10.088l12.232-21.189h45.097c3.587 7.908 8.001 15.348 13.143 22.242-5.028 6.731-9.849 13.825-14.382 21.174-3.959 6.416-7.648 12.949-11.033 19.525-7.214-4.042-16.3-3.317-22.834 2.193l-132.927 112.143c-8.5 7.172-9.582 19.924-2.412 28.426l13.096 15.529c3.475 4.12 8.345 6.639 13.715 7.095.583.049 1.162.074 1.74.074 4.75-.001 9.302-1.658 12.975-4.756l2.734-2.307v99.885c0 11.124 9.05 20.174 20.174 20.174h167.817c11.124 0 20.174-9.05 20.174-20.174v-99.884l2.731 2.304c4.119 3.475 9.343 5.141 14.715 4.682 5.37-.456 10.241-2.976 13.715-7.095l13.095-15.525c7.171-8.503 6.089-21.255-2.412-28.426l-34.582-29.177c8.712-10.296 16.908-21.611 24.422-33.788 9.432-15.29 17.178-30.909 23.102-46.517 21.826-4.979 41.933-16.019 58.239-32.253 22.532-22.432 35.185-52.16 35.628-83.71.459-32.585-11.88-63.297-34.74-86.481zm-54.665 65.173c10.794 0 19.575 8.781 19.575 19.574s-8.781 19.574-19.575 19.574-19.575-8.781-19.575-19.574 8.782-19.574 19.575-19.574zm-283.068 277.801c-.049.041-.151.032-.191-.016l-13.096-15.528c-.048-.057-.041-.143.016-.191l132.923-112.14c.025-.022.057-.032.088-.032s.062.01.087.032l6.576 5.548c.04.036.082.068.123.104l75.634 63.812c-5.194 5.115-10.432 9.683-15.671 13.706l-60.29-50.865c-3.732-3.149-9.19-3.149-12.922 0zm133.27 113.03h-27.06v-35.536h27.06zm70.513-.135c0 .074-.061.135-.135.135h-50.339v-36.572c0-10.479-8.525-19.003-19.003-19.003h-29.133c-10.479 0-19.003 8.525-19.003 19.003v36.572h-50.34c-.074 0-.135-.061-.135-.135v-116.791l84.044-70.905 49.11 41.432c-13.446 6.849-24.891 8.239-32.338 3.646-.341-.21-.691-.391-1.045-.555-4.589-2.795-9.974-4.406-15.729-4.406-16.724 0-30.329 13.605-30.329 30.329s13.605 30.329 30.329 30.329 30.329-13.605 30.329-30.329c0-.929-.049-1.847-.131-2.755 10.748-.679 22.689-4.855 35.287-12.445l18.561 15.66zm-73.757-117.25c0 5.674-4.616 10.29-10.29 10.29s-10.29-4.616-10.29-10.29 4.616-10.29 10.29-10.29 10.29 4.616 10.29 10.29zm122.734-11.189-13.095 15.526c-.041.048-.142.056-.19.016l-37.355-31.516c5.18-4.193 10.325-8.844 15.405-13.93l35.219 29.715c.056.047.064.132.016.189zm-14.308-88.994c-6.995 11.336-14.605 21.846-22.683 31.389l-70.284-59.298c3.649-7.384 7.724-14.739 12.17-21.943 3.481-5.644 7.14-11.122 10.936-16.376 4.532 4.302 9.406 8.285 14.618 11.889 20.226 13.985 43.908 21.358 68.567 21.358 1.131-.005 1.876-.004 3.997-.067-4.811 11.074-10.591 22.139-17.321 33.048z"/><circle cx="156.144" cy="80.47" r="10.02"/></g></svg>