<svg id="Layer_1" fill="#d7570c" enable-background="new 0 0 512 512" height="512" viewBox="0 0 512 512" width="512" xmlns="http://www.w3.org/2000/svg"><path d="m477.95 279.16h-83.53v-75.48l29.86 21.77c3.57 2.6 8.57 1.82 11.17-1.74l27.18-37.2c1.25-1.71 1.77-3.86 1.45-5.95-.33-2.1-1.48-3.98-3.19-5.23l-224.07-163.39c-2.81-2.05-6.62-2.05-9.43 0l-46.81 34.13v-11.53c0-4.42-3.58-8-8-8h-86c-4.42 0-8 3.58-8 8v33.92c0 4.42 3.58 8 8 8h4.81v34.63l-88.1 64.23c-1.72 1.25-2.86 3.13-3.19 5.23s.19 4.24 1.45 5.95l27.18 37.2c1.57 2.14 4 3.28 6.47 3.28 1.63 0 3.28-.5 4.71-1.54l29.89-21.79v211.97c0 4.42 3.58 8 8 8l273.93.42v61.54h-18.56c-4.42 0-8 3.58-8 8s3.58 8 8 8h79.79c4.42 0 8-3.58 8-8s-3.58-8-8-8h-18.53v-61.54h83.53c18.78 0 34.05-15.26 34.05-34.02v-76.86c-.01-18.74-15.28-34-34.06-34zm-110.23 0v-14.46h10.7v14.46zm-273.14-236.62h70v15.19l-3.74 2.72h-1.05-60.4-4.81zm12.81 33.92h31.51l-31.51 22.97zm-70.46 131.35-17.74-24.28 212.91-155.22 212.9 155.22-17.74 24.28-190.44-138.85c-2.81-2.05-6.62-2.05-9.43 0zm48.86-15.82 146.31-106.67 146.32 106.68v56.69h-18.7c-4.42 0-8 3.58-8 8v22.46h-58.12v-28.69c0-4.42-3.58-8-8-8h-106.98c-4.42 0-8 3.58-8 8v157.16h-84.83zm153.27 215.64h-52.44v-149.16h90.98v20.69h-9.41c-18.78 0-34.05 15.26-34.05 34.02v76.86c0 6.43 1.8 12.45 4.92 17.59zm139.36 77.96h-10.7v-61.54h10.7zm117.58-95.56c0 9.93-8.1 18.02-18.05 18.02l-213.62-.42c-8.1-1.77-14.19-8.98-14.19-17.59v-76.86c0-9.93 8.1-18.02 18.05-18.02h209.76c9.95 0 18.05 8.08 18.05 18.02zm-154.45-54.22v7.81h17.34c4.42 0 8 3.58 8 8s-3.58 8-8 8h-17.34v7.78h17.34c4.42 0 8 3.58 8 8s-3.58 8-8 8h-25.34c-4.42 0-8-3.58-8-8v-47.59c0-4.42 3.58-8 8-8h25.34c4.42 0 8 3.58 8 8s-3.58 8-8 8zm-22.67 3.89c0-10.97-8.93-19.89-19.91-19.89h-20.95c-4.42 0-8 3.58-8 8v23.81 23.78c0 4.42 3.58 8 8 8s8-3.58 8-8v-15.78h2.73l10.55 19.58c1.45 2.68 4.2 4.21 7.05 4.21 1.28 0 2.58-.31 3.79-.96 3.89-2.1 5.34-6.95 3.25-10.84l-7.2-13.36c7.41-2.91 12.69-10.12 12.69-18.55zm-32.86-3.89h12.95c2.12 0 3.91 1.78 3.91 3.89 0 2.16-1.75 3.92-3.91 3.92h-5.39c-.02 0-.05 0-.07 0h-7.49zm138.76-8v47.59c0 3.5-2.28 6.6-5.63 7.64-.78.24-1.58.36-2.37.36-2.59 0-5.08-1.26-6.6-3.47l-18.09-26.34v21.81c0 4.42-3.58 8-8 8s-8-3.58-8-8v-47.59c0-3.5 2.28-6.6 5.63-7.64s6.98.22 8.97 3.11l18.09 26.34v-21.81c0-4.42 3.58-8 8-8s8 3.58 8 8zm53.09 0c0 4.42-3.58 8-8 8h-8.33v39.59c0 4.42-3.58 8-8 8s-8-3.58-8-8v-39.59h-8.36c-4.42 0-8-3.58-8-8s3.58-8 8-8h32.68c4.43 0 8.01 3.58 8.01 8z"/></svg>