<svg id="Layer_1" fill="#d7570c" enable-background="new 0 0 512 512" height="512" viewBox="0 0 512 512" width="512" xmlns="http://www.w3.org/2000/svg"><path d="m508.19 346.7-15.16-9.31-10.46-25.28 4.11-17.27c.64-2.7-.16-5.54-2.13-7.51l-22.59-22.59c-1.97-1.96-4.81-2.77-7.51-2.13l-17.32 4.13-25.29-10.47-9.33-15.12c-1.46-2.36-4.03-3.8-6.81-3.8h-1.3v-33.68l29.89 21.79c1.42 1.04 3.07 1.54 4.71 1.54 2.47 0 4.9-1.14 6.47-3.28l27.18-37.2c1.25-1.71 1.77-3.86 1.45-5.95-.33-2.1-1.48-3.98-3.19-5.23l-224.12-163.4c-2.81-2.05-6.62-2.05-9.43 0l-46.79 34.11v-11.51c0-4.42-3.58-8-8-8h-86c-4.42 0-8 3.58-8 8v33.92c0 4.42 3.58 8 8 8h4.78v34.65l-88.06 64.21c-1.72 1.25-2.86 3.13-3.19 5.23s.19 4.24 1.45 5.95l27.18 37.2c2.6 3.56 7.6 4.35 11.17 1.74l29.86-21.77v211.95c0 4.42 3.58 8 8 8h197.79l1.32 3.17-4.13 17.29c-.65 2.71.16 5.55 2.13 7.52l22.59 22.56c1.96 1.96 4.8 2.76 7.5 2.12l17.33-4.1 25.3 10.48 9.33 15.12c1.46 2.36 4.03 3.8 6.81 3.8h31.97c2.78 0 5.35-1.44 6.81-3.8l9.33-15.12 25.3-10.48 17.33 4.1c2.7.64 5.53-.16 7.5-2.12l22.59-22.56c1.97-1.96 2.77-4.81 2.13-7.51l-4.11-17.3 10.46-25.25 15.17-9.31c2.37-1.46 3.81-4.04 3.81-6.82v-31.91c-.02-2.77-1.46-5.35-3.83-6.8zm-413.61-304.16h70v15.18l-3.75 2.74h-1.03-60.44-4.78zm12.78 33.92h31.52l-31.52 22.98zm-70.43 131.35-17.74-24.28 212.89-155.22 212.92 155.22-17.74 24.28-190.47-138.85c-1.4-1.02-3.06-1.54-4.71-1.54s-3.31.51-4.71 1.54zm48.83-15.8 146.32-106.69 146.32 106.67v45.35h-14.68c-2.78 0-5.35 1.44-6.81 3.8l-9.33 15.12-25.29 10.47-17.32-4.13c-2.71-.64-5.55.16-7.51 2.13l-3.89 3.89v-18.16c0-4.42-3.58-8-8-8h-106.98c-4.42 0-8 3.58-8 8v157.16h-84.83zm100.83 215.62v-149.16h90.98v26.16l-2.7 2.7c-1.97 1.97-2.77 4.81-2.12 7.52l4.13 17.26-10.48 25.27-15.14 9.32c-2.37 1.46-3.81 4.04-3.81 6.81v31.91c0 2.78 1.44 5.36 3.81 6.81l15.14 9.32 2.52 6.08zm309.41-26.68-13.56 8.33c-1.44.88-2.56 2.2-3.2 3.75l-12.44 30.04c-.64 1.55-.78 3.27-.39 4.91l3.67 15.47-16.28 16.25-15.5-3.67c-1.64-.39-3.35-.25-4.91.39l-30.08 12.46c-1.55.64-2.86 1.76-3.75 3.19l-8.34 13.53h-23.04l-8.34-13.53c-.88-1.43-2.19-2.55-3.75-3.19l-30.07-12.46c-1.55-.64-3.27-.78-4.91-.39l-15.5 3.67-16.27-16.25 3.69-15.46c.39-1.64.25-3.37-.39-4.93l-12.47-30.04c-.65-1.55-1.76-2.86-3.2-3.75l-13.54-8.33v-22.96l13.54-8.33c1.43-.88 2.55-2.19 3.2-3.75l12.47-30.07c.65-1.56.78-3.28.39-4.93l-3.69-15.44 16.27-16.27 15.49 3.69c1.64.39 3.36.25 4.92-.39l30.07-12.46c1.55-.64 2.86-1.76 3.75-3.19l8.34-13.53h23.04l8.34 13.53c.88 1.43 2.19 2.55 3.75 3.19l30.08 12.46c1.56.64 3.28.78 4.92.39l15.49-3.69 16.27 16.27-3.67 15.44c-.39 1.64-.25 3.36.39 4.91l12.44 30.07c.65 1.56 1.77 2.87 3.2 3.76l13.56 8.33v22.98zm-116.3-85.2c-40.69 0-73.79 33.07-73.79 73.71 0 40.66 33.1 73.74 73.79 73.74 40.71 0 73.82-33.08 73.82-73.74 0-40.65-33.11-73.71-73.82-73.71zm0 131.44c-31.87 0-57.79-25.9-57.79-57.74 0-31.82 25.92-57.71 57.79-57.71 31.88 0 57.82 25.89 57.82 57.71 0 31.84-25.94 57.74-57.82 57.74z"/></svg>