<svg id="Layer_1" fill="#9b9b9b" enable-background="new 0 0 512 512" height="512" viewBox="0 0 512 512" width="512" xmlns="http://www.w3.org/2000/svg"><path d="m470.13 29.35h-428.26c-23.09 0-41.87 18.76-41.87 41.83v299.35c0 23.07 18.78 41.83 41.87 41.83h153.16l-3.21 29.27h-36.42c-13.59 0-27.47 10.51-31.59 23.91l-2.1 6.74c-.76 2.43-.31 5.07 1.2 7.12s3.9 3.26 6.44 3.26h253.33c2.54 0 4.94-1.21 6.44-3.26 1.51-2.05 1.95-4.69 1.2-7.12l-2.1-6.73c-4.16-13.41-18.04-23.92-31.59-23.92h-36.45l-3.21-29.27h153.16c23.09 0 41.87-18.77 41.87-41.83v-299.35c0-23.07-18.78-41.83-41.87-41.83zm-428.26 16h428.25c14.27 0 25.87 11.59 25.87 25.83v276.04h-479.99v-276.04c0-14.25 11.61-25.83 25.87-25.83zm230.73 334.44c0 9.14-7.45 16.57-16.6 16.57s-16.6-7.43-16.6-16.57 7.45-16.57 16.6-16.57 16.6 7.43 16.6 16.57zm-256.6-9.26v-7.32h211.95c-2.89 4.86-4.55 10.52-4.55 16.57s1.66 11.71 4.55 16.57h-186.08c-14.26.01-25.87-11.58-25.87-25.82zm355.25 96.12h-230.48c3.18-5.1 9.24-9.03 14.63-9.03h201.23c5.37.01 11.42 3.93 14.62 9.03zm-67.17-25.02h-96.16l3.21-29.27h89.74zm166.05-45.27h-186.08c2.89-4.86 4.55-10.52 4.55-16.57s-1.66-11.71-4.55-16.57h211.95v7.32c0 14.23-11.61 25.82-25.87 25.82zm-428.26-60.72h428.25c7.87 0 14.26-6.4 14.26-14.26v-250.2c0-7.86-6.4-14.26-14.26-14.26h-428.25c-7.87 0-14.26 6.4-14.26 14.26v250.21c0 7.72 6.53 14.25 14.26 14.25zm1.74-262.72h424.78v246.72h-424.78zm233.63 99.31-93.83-68.37c-2.81-2.05-6.62-2.05-9.42 0l-93.8 68.37c-1.72 1.25-2.86 3.13-3.19 5.23s.19 4.24 1.45 5.95l15.17 20.75c1.57 2.14 4 3.28 6.47 3.28 1.63 0 3.29-.5 4.71-1.54l1.34-.98v77.3c0 4.42 3.58 8 8 8h129.16c4.42 0 8-3.58 8-8v-77.3l1.35.98c3.57 2.6 8.57 1.82 11.17-1.74l15.17-20.75c1.25-1.71 1.77-3.86 1.45-5.96-.34-2.08-1.49-3.97-3.2-5.22zm-112.91 102v-53.13h28.76v53.13zm70.97 0h-26.21v-61.13c0-4.42-3.58-8-8-8h-44.76c-4.42 0-8 3.58-8 8v61.13h-26.21v-80.97l56.58-41.26 56.6 41.27zm20.32-85.95-72.2-52.65c-1.41-1.02-3.06-1.54-4.71-1.54-1.66 0-3.31.51-4.71 1.54l-72.17 52.65-5.72-7.83 82.61-60.22 82.64 60.22zm179.48 17.85c0 4.42-3.58 8-8 8h-117.07c-4.42 0-8-3.58-8-8s3.58-8 8-8h117.07c4.41 0 8 3.58 8 8zm0 29.19c0 4.42-3.58 8-8 8h-117.07c-4.42 0-8-3.58-8-8s3.58-8 8-8h117.07c4.41 0 8 3.58 8 8zm-45.16 29.19c0 4.42-3.58 8-8 8h-71.91c-4.42 0-8-3.58-8-8s3.58-8 8-8h71.91c4.42 0 8 3.58 8 8zm-87.91-105.71c0-4.42 3.58-8 8-8h71.91c4.42 0 8 3.58 8 8s-3.58 8-8 8h-71.91c-4.42 0-8-3.58-8-8zm35.94-30.75c0-4.42 3.58-8 8-8h35.97c4.42 0 8 3.58 8 8s-3.58 8-8 8h-35.97c-4.42 0-8-3.58-8-8zm-35.94 0c0-4.42 3.58-8 8-8h10.57c4.42 0 8 3.58 8 8s-3.58 8-8 8h-10.57c-4.42 0-8-3.58-8-8z"/></svg>