<svg id="Layer_1" enable-background="new 0 0 512 512" fill="#d7570c" height="512" viewBox="0 0 512 512" width="512" xmlns="http://www.w3.org/2000/svg"><path d="m477.95 279.16h-83.53v-75.48l29.86 21.77c3.57 2.6 8.57 1.82 11.17-1.74l27.18-37.2c1.25-1.71 1.77-3.86 1.44-5.95-.33-2.1-1.48-3.98-3.19-5.23l-224.06-163.39c-2.81-2.05-6.62-2.05-9.43 0l-46.81 34.13v-11.53c0-4.42-3.58-8-8-8h-86c-4.42 0-8 3.58-8 8v33.92c0 4.42 3.58 8 8 8h4.81v34.63l-88.1 64.23c-1.72 1.25-2.86 3.13-3.19 5.23s.19 4.24 1.45 5.95l27.18 37.2c1.57 2.14 4 3.28 6.47 3.28 1.63 0 3.28-.5 4.71-1.54l29.89-21.79v211.97c0 4.42 3.58 8 8 8l273.93.42v61.54h-18.56c-4.42 0-8 3.58-8 8s3.58 8 8 8h79.79c4.42 0 8-3.58 8-8s-3.58-8-8-8h-18.53v-61.54h83.53c18.77 0 34.05-15.26 34.05-34.02v-76.86c-.01-18.74-15.28-34-34.06-34zm-110.23 0v-14.46h10.7v14.46zm-273.14-236.62h70v15.19l-3.74 2.72h-1.05-60.4-4.81zm12.81 33.92h31.51l-31.51 22.97zm-70.46 131.35-17.74-24.28 212.91-155.22 212.9 155.22-17.74 24.28-190.44-138.85c-2.81-2.05-6.62-2.05-9.43 0zm48.86-15.82 146.31-106.67 146.32 106.68v56.68h-18.7c-4.42 0-8 3.58-8 8v22.46h-58.12v-28.69c0-4.42-3.58-8-8-8h-106.98c-4.42 0-8 3.58-8 8v157.16h-84.83zm153.27 215.64h-52.44v-149.16h90.98v20.69h-9.4c-18.77 0-34.05 15.26-34.05 34.02v76.86c-.01 6.43 1.79 12.45 4.91 17.59zm139.36 77.96h-10.7v-61.54h10.7zm117.58-95.56c0 9.93-8.1 18.02-18.05 18.02l-213.62-.42c-8.1-1.77-14.19-8.98-14.19-17.59v-76.86c0-9.93 8.1-18.02 18.05-18.02h209.76c9.95 0 18.05 8.08 18.05 18.02zm-51.66-54.22v7.81h15.56c4.42 0 8 3.58 8 8s-3.58 8-8 8h-15.56v7.78h15.56c4.42 0 8 3.58 8 8s-3.58 8-8 8h-23.56c-4.42 0-8-3.58-8-8v-47.59c0-4.42 3.58-8 8-8h23.56c4.42 0 8 3.58 8 8s-3.58 8-8 8zm-84.74-10.99c-1.22-3.03-4.15-5.01-7.42-5.01-3.26 0-6.2 1.98-7.42 5.01l-19.19 47.59c-1.65 4.1.33 8.76 4.43 10.41.98.4 1.99.58 2.99.58 3.17 0 6.17-1.89 7.42-5.01l1.92-4.76h19.67l1.91 4.75c1.65 4.1 6.31 6.08 10.41 4.43s6.08-6.31 4.43-10.41zm-10.82 32.81 3.39-8.42 3.39 8.42zm76.76 17.77c0 4.42-3.58 8-8 8h-23.58c-4.42 0-8-3.58-8-8v-47.59c0-4.42 3.58-8 8-8s8 3.58 8 8v39.59h15.58c4.42 0 8 3.58 8 8zm-102.18-12.48c-.05 10.07-8.61 20.48-22.86 20.48-9.48 0-16.43-2.83-20.64-8.42-2.66-3.53-1.96-8.54 1.57-11.2s8.54-1.96 11.2 1.57c.99 1.31 3.85 2.06 7.87 2.06 4.98 0 6.85-2.8 6.86-4.56.01-2.33-3.58-3.19-6.65-3.22-15.53-.17-22.54-10.14-22.49-19.33.05-10.07 8.62-20.48 22.85-20.48 9.45 0 16.4 2.83 20.65 8.42 2.68 3.52 2 8.53-1.52 11.21s-8.53 2-11.21-1.52c-1.02-1.34-3.91-2.11-7.92-2.11-4.97 0-6.84 2.8-6.85 4.57-.01 2.34 3.58 3.21 6.65 3.24 15.51.13 22.54 10.09 22.49 19.29z"/></svg>