<svg id="Layer_1" fill="#9b9b9b" enable-background="new 0 0 512 512" height="512" viewBox="0 0 512 512" width="512" xmlns="http://www.w3.org/2000/svg"><path clip-rule="evenodd" d="m154.36 110.79c2.61 3.56 7.6 4.34 11.17 1.74l7.87-5.74v75.82c0 4.42 3.58 8 8 8h149.24c4.42 0 8-3.58 8-8v-75.82l7.87 5.73c1.42 1.04 3.07 1.54 4.71 1.54 2.46 0 4.9-1.14 6.46-3.28l13.15-17.98c1.25-1.71 1.77-3.86 1.45-5.96-.33-2.1-1.48-3.98-3.19-5.23l-108.38-79c-2.81-2.05-6.62-2.05-9.43 0l-108.33 79.01c-1.72 1.25-2.86 3.13-3.19 5.23s.19 4.24 1.45 5.95zm83.79 63.82v-63.86h35.73v63.86zm84.49 0h-32.76v-71.86c0-4.42-3.58-8-8-8h-51.73c-4.42 0-8 3.58-8 8v71.86h-32.75v-79.49l66.6-48.57 66.63 48.58v79.48zm-66.64-155.64 97.18 70.86-3.71 5.06-88.76-64.71c-1.4-1.02-3.06-1.54-4.71-1.54s-3.31.51-4.71 1.54l-88.73 64.71-3.71-5.06zm255.24 304.14-69.59-147.84c-1.88-4-6.64-5.71-10.64-3.83l-50.48 23.72c-1.92.9-3.41 2.53-4.12 4.53-.72 2-.62 4.2.29 6.12l2.4 5.09c-9.25 3.24-18.91 5.99-28.62 6.93-10.55 1.03-24.76-.81-39.82-2.76-27.16-3.52-55.25-7.16-73.98 3.88l-10.5 6.18c-17.29-12.55-33.65-10.59-50.9-8.5-11.16 1.35-22.71 2.74-36.44.71-2.66-.39-5.35-.93-8.17-1.63l4.66-9.9c.9-1.92 1.01-4.12.29-6.12s-2.2-3.63-4.12-4.53l-50.46-23.72c-4-1.88-8.76-.16-10.64 3.83l-69.64 147.84c-.9 1.92-1.01 4.12-.29 6.12s2.2 3.63 4.13 4.53l50.48 23.7c1.1.52 2.25.76 3.39.76 3 0 5.88-1.7 7.24-4.59l3.54-7.53 13.44 9.63c3.84 4.41 6.2 12.17 8.69 20.36 2.34 7.69 4.75 15.6 8.81 22.42l-4.58 7.82c-3.83 6.53-4.88 14.19-2.96 21.57 1.93 7.39 6.6 13.57 13.17 17.42 4.51 2.63 9.46 3.89 14.35 3.89 2.65 0 5.27-.38 7.8-1.09.04.16.07.32.11.48 1.93 7.39 6.6 13.57 13.17 17.42 4.52 2.64 9.47 3.89 14.37 3.89 2.64 0 5.26-.38 7.79-1.09.04.17.08.35.12.52 1.94 7.39 6.61 13.56 13.16 17.37 4.52 2.64 9.46 3.89 14.35 3.89 6.31 0 12.5-2.1 17.53-5.99 2.45 4.46 6.06 8.19 10.55 10.82 4.5 2.63 9.44 3.88 14.33 3.88 6.6 0 13.1-2.29 18.26-6.55l23.44 13.88c4.92 2.91 10.33 4.3 15.67 4.3 10.55 0 20.86-5.4 26.64-15.11 2.85-4.81 4.3-10.2 4.28-15.69 3.01.95 6.11 1.42 9.19 1.42 10.54 0 20.83-5.39 26.59-15.09 3.79-6.38 5.11-13.79 3.81-21.08 2.01-.11 4.02-.41 6.02-.92 8.02-2.04 14.74-7.06 18.92-14.12 4.02-6.76 5.26-14.68 3.54-22.4 1.43-.16 2.86-.41 4.28-.77 8.01-2.04 14.73-7.06 18.91-14.12 4.19-7.03 5.37-15.31 3.33-23.32-.46-1.82-1.09-3.58-1.85-5.25 11.81-3.38 21.85-8.03 30.35-14l1.48 3.14c1.36 2.9 4.24 4.59 7.24 4.59 1.14 0 2.3-.24 3.4-.76l50.46-23.7c1.92-.9 3.41-2.53 4.13-4.53.71-2 .6-4.2-.3-6.12zm-456.59 16.46-36-16.9 62.8-133.36 35.98 16.92-58.47 124.2c-.07.15-.14.29-.21.44zm59.27 91.92c-2.87-1.68-4.91-4.39-5.76-7.64-.85-3.24-.39-6.59 1.28-9.43l7.12-12.15c.06-.1.12-.19.17-.29l13.4-22.87v-.01c2.33-3.98 6.53-6.2 10.83-6.2 2.14 0 4.31.55 6.28 1.7 2.86 1.68 4.91 4.39 5.76 7.65.85 3.25.4 6.6-1.28 9.46l-20.66 35.29c-3.48 5.97-11.18 7.97-17.14 4.49zm35.43 20.7c-2.87-1.68-4.91-4.39-5.76-7.64-.85-3.24-.39-6.59 1.28-9.44l20.66-35.3c2.33-3.98 6.53-6.2 10.85-6.2 2.15 0 4.32.55 6.3 1.71 2.86 1.68 4.91 4.39 5.76 7.65.85 3.25.4 6.6-1.28 9.46l-7.12 12.17-13.54 23.14c-3.49 5.93-11.18 7.93-17.15 4.45zm35.42 20.68c-2.85-1.66-4.89-4.36-5.74-7.61s-.4-6.61 1.28-9.47l20.66-35.3c1.68-2.87 4.39-4.91 7.65-5.77 1.07-.28 2.16-.42 3.23-.42 2.18 0 4.33.57 6.25 1.7 2.87 1.68 4.92 4.39 5.78 7.65.85 3.25.4 6.6-1.27 9.45l-20.7 35.31c-3.49 5.95-11.17 7.95-17.14 4.46zm42.45 8.73c-2.88-1.68-4.93-4.41-5.78-7.69-.84-3.23-.38-6.55 1.29-9.38l13.72-23.29c3.51-5.95 11.21-7.96 17.16-4.49 2.88 1.68 4.93 4.41 5.78 7.68.84 3.23.38 6.55-1.29 9.38l-13.72 23.29c-3.51 5.96-11.21 7.97-17.16 4.5zm172.02-96.71c-2.01 3.39-5.24 5.8-9.1 6.78-3.87.98-7.86.42-11.26-1.6l-37.56-22.25c-3.8-2.25-8.71-1-10.96 2.81-2.25 3.8-1 8.71 2.81 10.96l34.08 20.19c.02.01.04.03.06.04 3.38 2.01 5.79 5.26 6.78 9.14.98 3.87.42 7.84-1.58 11.21-2.01 3.39-5.24 5.8-9.11 6.78-3.87.99-7.88.42-11.29-1.61l-37.36-22.11c-3.8-2.25-8.71-.99-10.96 2.81s-.99 8.71 2.81 10.96l31.73 18.78c.08.05.16.11.24.16 3.37 1.99 5.77 5.22 6.76 9.09.99 3.88.43 7.87-1.57 11.25-4.18 7.04-13.31 9.36-20.36 5.19l-32.09-19.02c-3.8-2.25-8.71-1-10.96 2.8s-1 8.71 2.8 10.96l15.35 9.1-.01.02c3.37 1.99 5.77 5.22 6.77 9.1.99 3.87.44 7.86-1.55 11.21-4.2 7.05-13.35 9.4-20.4 5.22l-21.99-13.02 10.54-17.89c3.85-6.5 4.91-14.15 3-21.52-1.92-7.42-6.61-13.63-13.19-17.48-6.96-4.06-14.97-4.82-22.2-2.77-.05-.19-.08-.37-.13-.56-1.94-7.4-6.62-13.59-13.18-17.41-6.55-3.83-14.22-4.88-21.61-2.94-.18.05-.35.1-.52.15-.04-.16-.07-.33-.11-.49-1.93-7.4-6.6-13.58-13.17-17.42-6.96-4.06-14.95-4.83-22.15-2.79-.04-.16-.07-.32-.11-.48-1.93-7.4-6.6-13.58-13.17-17.42-13.57-7.92-31.07-3.33-39 10.23l-6.27 10.7c-1.21-3.31-2.29-6.83-3.34-10.3-3.02-9.92-6.14-20.18-12.87-27.24l-.52-.55-17.12-12.29 47.53-100.95c4.47 1.23 8.69 2.14 12.76 2.74 15.86 2.35 29.06.76 40.7-.65 13.4-1.62 23.36-2.82 33.31 1.83l-54.22 31.9c-6.94 4.07-11.32 10.42-12.66 18.37-1.32 7.82.8 15.46 5.98 21.51 12.86 15.04 34.57 18.67 51.64 8.63l35.77-21.07c30.75 35.91 64.77 43.82 96.06 43.82 4.91 0 9.76-.2 14.51-.51l46.46 27.54c3.38 2.01 5.79 5.26 6.78 9.14.98 3.87.42 7.85-1.58 11.22zm3.34-33.88c-.12-.08-.24-.16-.37-.23l-48.61-28.82c-1.41-.84-3.04-1.22-4.67-1.1-34.53 2.57-71-.8-103.78-42.49-2.48-3.15-6.9-3.98-10.35-1.95l-41.67 24.54c-10.36 6.1-23.55 3.89-31.36-5.24-2.13-2.49-2.9-5.25-2.36-8.45.54-3.22 2.17-5.58 4.98-7.23l80.39-47.31c14.01-8.26 40.47-4.83 63.81-1.8 15.98 2.07 31.07 4.03 43.42 2.82 11.86-1.14 23.22-4.48 33.93-8.3l51.95 110.29c-9.07 6.98-20.7 12.01-35.31 15.27zm54.8-11.44-2.39-5.08c-.03-.05-.05-.11-.08-.16l-60.33-128.09 36-16.92 62.77 133.36zm-403.86-25.51c0 4.39-3.57 7.98-7.99 7.98s-7.99-3.6-7.99-7.98c0-4.39 3.57-7.98 7.99-7.98s7.99 3.59 7.99 7.98zm404.96 0c0-4.39 3.6-7.98 8.02-7.98 4.39 0 7.99 3.6 7.99 7.98 0 4.39-3.6 7.98-7.99 7.98-4.42 0-8.02-3.59-8.02-7.98z" fill-rule="evenodd"/></svg>