<svg
   version="1.1"
   id="svg2925"
   fill="#d7570c"
   xml:space="preserve"
   width="682.66669"
   height="682.66669"
   viewBox="0 0 682.66669 682.66669"
   xmlns="http://www.w3.org/2000/svg"
   xmlns:svg="http://www.w3.org/2000/svg"><defs
     id="defs2929"><clipPath
       clipPathUnits="userSpaceOnUse"
       id="clipPath2939"><path
         d="M 0,512 H 512 V 0 H 0 Z"
         id="path2937" /></clipPath></defs><g
     id="g2931"
     transform="matrix(1.3333333,0,0,-1.3333333,0,682.66667)"><g
       id="g2933"><g
         id="g2935"
         clip-path="url(#clipPath2939)"><g
           id="g2941"
           transform="translate(201.8701,378.2295)"><path
             d="m 0,0 c -1.114,-15.3 -7.371,-38.085 -31.572,-56.921 -4.413,-3.434 -2.157,-10.548 3.432,-10.73 27.295,-0.892 85.945,16.425 97.79,56.128"
             style="fill:none;stroke:#d7570c;stroke-width:15;stroke-linecap:round;stroke-linejoin:round;stroke-miterlimit:10;stroke-dasharray:none;stroke-opacity:1"
             id="path2943" /></g><g
           id="g2945"
           transform="translate(389.0439,386.3516)"><path
             d="M 0,0 C 0.042,7.54 6.188,13.618 13.729,13.576 21.27,13.534 27.348,7.388 27.306,-0.152"
             style="fill:none;stroke:#d7570c;stroke-width:15;stroke-linecap:round;stroke-linejoin:round;stroke-miterlimit:10;stroke-dasharray:none;stroke-opacity:1"
             id="path2947" /></g><g
           id="g2949"
           transform="translate(291.9219,50.4033)"><path
             d="M 0,0 C 82.829,0 150.216,67.386 150.216,150.216"
             style="fill:none;stroke:#d7570c;stroke-width:15;stroke-linecap:round;stroke-linejoin:round;stroke-miterlimit:10;stroke-dasharray:none;stroke-opacity:1"
             id="path2951" /></g><g
           id="g2953"
           transform="translate(291.9219,94.6777)"><path
             d="M 0,0 C 58.416,0 105.941,47.525 105.941,105.941"
             style="fill:none;stroke:#d7570c;stroke-width:15;stroke-linecap:round;stroke-linejoin:round;stroke-miterlimit:10;stroke-dasharray:none;stroke-opacity:1"
             id="path2955" /></g><g
           id="g2957"
           transform="translate(353.5889,200.6191)"><path
             d="M 0,0 C 0,-34.059 -27.609,-61.668 -61.667,-61.668"
             style="fill:none;stroke:#d7570c;stroke-width:15;stroke-linecap:round;stroke-linejoin:round;stroke-miterlimit:10;stroke-dasharray:none;stroke-opacity:1"
             id="path2959" /></g><g
           id="g2961"
           transform="translate(127.3438,187.5645)"><path
             d="m 0,0 c 29.684,70.5 114.675,152.406 354.011,122.12 8.512,-1.078 16.806,3.236 20.792,10.836 5.125,9.773 1.615,21.849 -7.95,27.352 l -12.98,7.468 c -8.963,5.157 -15.431,13.694 -18.158,23.667 -4.764,17.418 -17.456,46.429 -50.898,66.139 -39.366,23.203 -113.934,42.081 -202.762,6.106 C -108.439,186.54 -55.238,-88.938 -55.237,-88.944 c 0,0.001 -56.063,0.897 -64.556,-70.455 -0.737,-6.2 6.728,-9.894 11.191,-5.53 8.732,8.539 21.295,17.597 34.732,16.747 17.911,-1.131 32.193,8.767 38.645,17.772 6.351,-9.076 20.523,-19.133 38.446,-18.201 13.445,0.699 25.905,-8.498 34.542,-17.134 4.414,-4.414 11.921,-0.804 11.252,5.403 -7.697,71.444 -63.986,71.173 -63.986,71.173 0,0 -2.998,25.849 5.279,59.735"
             style="fill:none;stroke:#d7570c;stroke-width:15;stroke-linecap:round;stroke-linejoin:round;stroke-miterlimit:10;stroke-dasharray:none;stroke-opacity:1"
             id="path2963" /></g><g
           id="g2965"
           transform="translate(275.9414,303.9619)"><path
             d="m 0,0 c -1.261,-12.272 -5.99,-26.755 -18.149,-41.182 -3.375,-4.004 0.074,-10.079 5.229,-9.16 23.001,4.103 67.018,27.221 76.824,60.678"
             style="fill:none;stroke:#d7570c;stroke-width:15;stroke-linecap:round;stroke-linejoin:round;stroke-miterlimit:10;stroke-dasharray:none;stroke-opacity:1"
             id="path2967" /></g><g
           id="g2969"
           transform="translate(243.9307,485.5)"><path
             d="m 0,0 c -36.055,11.009 -82.576,6.126 -105.791,0.992 -7.338,-1.623 -8.637,-11.558 -1.956,-15 11.334,-5.84 20.517,-12.123 27.954,-18.486"
             style="fill:none;stroke:#d7570c;stroke-width:15;stroke-linecap:round;stroke-linejoin:round;stroke-miterlimit:10;stroke-dasharray:none;stroke-opacity:1"
             id="path2971" /></g></g></g></g></svg>
